<svg width="216" height="59" viewBox="0 0 216 59" fill="none" xmlns="http://www.w3.org/2000/svg">
<path d="M93.5745 5.73462H96.1077V12.0714H98.641V5.73462H101.174V24.7375H98.641V14.6046H96.1077V24.7375H93.5745V5.73462Z" fill="#0084CE"/>
<path d="M104.631 7.21233C104.996 6.75166 105.46 6.37948 105.989 6.12362C106.518 5.86777 107.098 5.73486 107.686 5.73486C108.274 5.73486 108.854 5.86777 109.383 6.12362C109.912 6.37948 110.376 6.75166 110.741 7.21233C111.224 7.89135 111.487 8.70163 111.495 9.53445V20.9339C111.486 21.7678 111.223 22.5792 110.741 23.2598C110.375 23.7192 109.911 24.0902 109.382 24.3452C108.853 24.6002 108.273 24.7327 107.686 24.7327C107.099 24.7327 106.519 24.6002 105.99 24.3452C105.461 24.0902 104.996 23.7192 104.631 23.2598C104.149 22.5792 103.886 21.7678 103.877 20.9339V9.53445C103.885 8.70163 104.148 7.89135 104.631 7.21233ZM106.685 8.69381C106.518 8.943 106.425 9.23454 106.417 9.53445V20.9377C106.424 21.239 106.517 21.5321 106.685 21.7821C106.815 21.9154 106.97 22.0214 107.142 22.0938C107.314 22.1662 107.498 22.2035 107.684 22.2035C107.87 22.2035 108.055 22.1662 108.226 22.0938C108.398 22.0214 108.553 21.9154 108.683 21.7821C108.851 21.5321 108.944 21.239 108.951 20.9377V9.53445C108.945 9.23426 108.852 8.94226 108.683 8.69381C108.554 8.55903 108.399 8.45177 108.227 8.37849C108.055 8.30522 107.871 8.26746 107.684 8.26746C107.497 8.26746 107.313 8.30522 107.141 8.37849C106.969 8.45177 106.814 8.55903 106.685 8.69381Z" fill="#0084CE"/>
<path d="M121.802 24.8091H114.199V5.79492H121.802V7.06153C121.842 9.11055 121.344 11.1343 120.358 12.9309C119.949 13.6424 119.411 14.2713 118.771 14.7856C119.451 15.4612 120.006 16.251 120.411 17.119C121.329 19.1306 121.804 21.3162 121.802 23.5274V24.8091ZM116.732 13.1231C117.344 12.7851 117.846 12.2788 118.179 11.6643C118.742 10.6412 119.089 9.51332 119.197 8.35075H116.732V13.1231ZM116.732 16.399V22.2872H119.201C119.076 20.8893 118.714 19.5228 118.13 18.2461C117.822 17.5193 117.342 16.8778 116.732 16.3764V16.399Z" fill="#0084CE"/>
<path d="M124.512 5.79492H132.115V12.128H129.578V8.32814H127.045V24.8091H124.512V5.79492Z" fill="#0084CE"/>
<path d="M135.572 7.21233C135.937 6.75166 136.402 6.37948 136.931 6.12362C137.46 5.86777 138.04 5.73486 138.628 5.73486C139.215 5.73486 139.795 5.86777 140.325 6.12362C140.854 6.37948 141.318 6.75166 141.683 7.21233C142.166 7.89113 142.429 8.70155 142.437 9.53445V20.9339C142.427 21.7676 142.164 22.5786 141.683 23.2598C141.317 23.7192 140.853 24.0902 140.324 24.3452C139.795 24.6002 139.215 24.7327 138.628 24.7327C138.04 24.7327 137.461 24.6002 136.932 24.3452C136.403 24.0902 135.938 23.7192 135.572 23.2598C135.09 22.5792 134.827 21.7678 134.818 20.9339V9.53445C134.827 8.70163 135.09 7.89135 135.572 7.21233ZM137.627 8.69381C137.458 8.94226 137.365 9.23426 137.359 9.53445V20.9377C137.366 21.239 137.459 21.5321 137.627 21.7821C137.757 21.9154 137.912 22.0214 138.084 22.0938C138.255 22.1662 138.44 22.2035 138.626 22.2035C138.812 22.2035 138.996 22.1662 139.168 22.0938C139.339 22.0214 139.495 21.9154 139.625 21.7821C139.793 21.5321 139.886 21.239 139.892 20.9377V9.53445C139.886 9.23426 139.793 8.94226 139.625 8.69381C139.496 8.55903 139.341 8.45177 139.169 8.37849C138.997 8.30522 138.812 8.26746 138.626 8.26746C138.439 8.26746 138.254 8.30522 138.083 8.37849C137.911 8.45177 137.756 8.55903 137.627 8.69381Z" fill="#0084CE"/>
<path d="M145.14 5.73462H152.739V7.00123C152.739 9.01046 152.411 11.1479 151.473 12.8442C151.094 13.5796 150.557 14.2215 149.9 14.7236C149.243 15.2256 148.482 15.5751 147.673 15.7468V24.7375H145.14V5.73462ZM147.673 13.1232C148.363 12.8233 148.925 12.2892 149.26 11.6153C149.781 10.5729 150.085 9.43524 150.153 8.27161H147.673V13.1232Z" fill="#0084CE"/>
<path d="M156.2 7.21233C156.565 6.75166 157.03 6.37948 157.559 6.12362C158.088 5.86777 158.668 5.73486 159.256 5.73486C159.843 5.73486 160.423 5.86777 160.952 6.12362C161.482 6.37948 161.946 6.75166 162.311 7.21233C162.794 7.89113 163.057 8.70155 163.065 9.53445V20.9339C163.055 21.7676 162.792 22.5786 162.311 23.2598C161.945 23.7192 161.48 24.0902 160.951 24.3452C160.422 24.6002 159.843 24.7327 159.256 24.7327C158.668 24.7327 158.089 24.6002 157.56 24.3452C157.031 24.0902 156.566 23.7192 156.2 23.2598C155.718 22.5792 155.455 21.7678 155.446 20.9339V9.53445C155.455 8.70163 155.718 7.89135 156.2 7.21233ZM158.255 8.69381C158.086 8.94226 157.993 9.23426 157.987 9.53445V20.9377C157.994 21.2436 158.089 21.541 158.262 21.7934C158.392 21.9268 158.547 22.0328 158.719 22.1051C158.891 22.1775 159.075 22.2148 159.261 22.2148C159.447 22.2148 159.632 22.1775 159.803 22.1051C159.975 22.0328 160.13 21.9268 160.26 21.7934C160.427 21.5426 160.52 21.25 160.528 20.949V9.53445C160.522 9.23426 160.429 8.94226 160.26 8.69381C160.131 8.55903 159.976 8.45177 159.804 8.37849C159.633 8.30522 159.448 8.26746 159.261 8.26746C159.075 8.26746 158.89 8.30522 158.718 8.37849C158.546 8.45177 158.391 8.55903 158.262 8.69381H158.255Z" fill="#0084CE"/>
<path d="M174.815 22.2648V27.3312H172.281V24.8093H167.215V27.3425H164.671V22.2648H165.937V13.293C165.937 12.0904 165.937 10.2508 166.691 8.71281C167.13 7.81388 167.835 7.07257 168.712 6.5905C169.805 6.02631 171.025 5.75242 172.255 5.79509H173.522V22.2648H174.815ZM171.015 8.43763C170.648 8.50732 170.294 8.63455 169.967 8.8146C169.538 9.04972 169.194 9.41366 168.983 9.85502C168.504 10.8087 168.482 12.0754 168.482 13.406V22.2761H171.015V8.43763Z" fill="#0084CE"/>
<path d="M179.237 8.69381C179.068 8.94226 178.975 9.23426 178.969 9.53445V20.9377C178.975 21.239 179.068 21.5321 179.237 21.7821C179.366 21.9158 179.521 22.0221 179.692 22.0948C179.864 22.1674 180.048 22.2048 180.234 22.2048C180.42 22.2048 180.604 22.1674 180.775 22.0948C180.947 22.0221 181.102 21.9158 181.231 21.7821C181.4 21.5323 181.494 21.2393 181.502 20.9377V17.1379H184.035V20.9377C184.026 21.7704 183.763 22.5806 183.282 23.2598C182.917 23.7205 182.452 24.0927 181.923 24.3485C181.394 24.6044 180.814 24.7373 180.226 24.7373C179.639 24.7373 179.058 24.6044 178.529 24.3485C178 24.0927 177.536 23.7205 177.171 23.2598C176.689 22.5808 176.426 21.7705 176.417 20.9377V9.53445C176.428 8.70202 176.691 7.89243 177.171 7.21233C177.536 6.75166 178 6.37948 178.529 6.12362C179.058 5.86777 179.639 5.73486 180.226 5.73486C180.814 5.73486 181.394 5.86777 181.923 6.12362C182.452 6.37948 182.917 6.75166 183.282 7.21233C183.763 7.89178 184.026 8.70179 184.035 9.53445V10.8048H181.502V9.53445C181.497 9.23361 181.402 8.94115 181.231 8.69381C181.102 8.55913 180.947 8.45195 180.776 8.37872C180.605 8.3055 180.42 8.26774 180.234 8.26774C180.047 8.26774 179.863 8.3055 179.692 8.37872C179.52 8.45195 179.366 8.55913 179.237 8.69381Z" fill="#0084CE"/>
<path d="M189.283 5.79492V13.191C190.024 12.9105 190.635 12.3653 190.998 11.6605C191.657 10.5032 191.967 8.85212 191.967 7.06153V5.79492H194.5V7.06153C194.5 9.07076 194.168 11.2082 193.199 12.9158C192.796 13.6457 192.25 14.2868 191.593 14.8007C192.295 15.4692 192.86 16.2682 193.256 17.1529C194.172 19.1207 194.5 21.537 194.5 23.5613V24.8091H191.967V23.5425C191.967 21.7481 191.665 19.7314 190.96 18.216C190.635 17.3902 190.045 16.6956 189.283 16.2407V24.8091H186.749V5.79492H189.283Z" fill="#0084CE"/>
<path d="M197.225 5.79492H199.758V12.8706L202.292 10.3374V5.79492H204.825V24.8091H202.292V13.9185L199.758 16.4555V24.8091H197.225V5.79492Z" fill="#0084CE"/>
<path d="M211.339 7.06155C210.332 7.05955 209.366 6.65857 208.654 5.9464C207.942 5.23422 207.541 4.26888 207.539 3.26172H210.072C210.072 3.59764 210.206 3.91981 210.443 4.15735C210.681 4.39488 211.003 4.52833 211.339 4.52833C211.675 4.52833 211.997 4.39488 212.235 4.15735C212.472 3.91981 212.605 3.59764 212.605 3.26172H215.139C215.137 4.26888 214.736 5.23422 214.024 5.9464C213.311 6.65857 212.346 7.05955 211.339 7.06155ZM207.539 8.32815H210.072V14.1372L212.605 11.604V8.32815H215.139V24.8091H212.605V15.1889L210.072 17.7222V24.8091H207.539V8.32815Z" fill="#0084CE"/>
<path d="M93.5745 38.3799H101.174V44.7129H98.641V40.898H96.1077V47.3554C96.9163 47.5272 97.6764 47.8768 98.333 48.3788C98.9896 48.8809 99.5262 49.5228 99.9038 50.2581C100.842 51.9469 101.174 54.0918 101.174 56.1011V57.3677H93.5745V38.3799ZM96.1077 54.8458H98.5882C98.5205 53.6817 98.2152 52.5437 97.691 51.5021C97.3577 50.8284 96.7969 50.2943 96.1077 49.9942V54.8458Z" fill="#0084CE"/>
<path d="M106.674 39.1603C107.769 38.5961 108.991 38.3223 110.222 38.3649H111.488V43.4313H108.955V41.0188C108.588 41.0885 108.234 41.2157 107.907 41.3957C107.477 41.6308 107.132 41.9947 106.919 42.4362C106.607 43.1573 106.444 43.9345 106.441 44.7206H108.955V47.2538H106.422V54.8572H108.955V51.031H111.488V57.3678H103.885V45.8628C103.885 44.6603 103.885 42.8207 104.639 41.2826C105.082 40.3822 105.793 39.6409 106.674 39.1603Z" fill="#0084CE"/>
<path d="M117.003 41.2639C116.833 41.5121 116.739 41.804 116.732 42.1045V53.5077C116.739 53.8094 116.834 54.1024 117.003 54.3521C117.132 54.4859 117.287 54.5922 117.459 54.6648C117.63 54.7375 117.814 54.7749 118 54.7749C118.186 54.7749 118.37 54.7375 118.541 54.6648C118.713 54.5922 118.868 54.4859 118.997 54.3521C119.166 54.1024 119.261 53.8094 119.268 53.5077V49.7079H121.802V53.5077C121.793 54.3405 121.53 55.1506 121.048 55.8299C120.683 56.2905 120.218 56.6627 119.689 56.9186C119.16 57.1744 118.58 57.3073 117.992 57.3073C117.405 57.3073 116.825 57.1744 116.296 56.9186C115.766 56.6627 115.302 56.2905 114.937 55.8299C114.455 55.1506 114.192 54.3405 114.183 53.5077V42.1045C114.193 41.2719 114.456 40.4619 114.937 39.7824C115.302 39.3217 115.766 38.9495 116.296 38.6937C116.825 38.4378 117.405 38.3049 117.992 38.3049C118.58 38.3049 119.16 38.4378 119.689 38.6937C120.218 38.9495 120.683 39.3217 121.048 39.7824C121.529 40.4619 121.792 41.2719 121.802 42.1045V43.3749H119.268V42.1045C119.261 41.804 119.167 41.5121 118.997 41.2639C118.868 41.1292 118.714 41.022 118.542 40.9488C118.371 40.8756 118.186 40.8378 118 40.8378C117.814 40.8378 117.629 40.8756 117.458 40.9488C117.286 41.022 117.132 41.1292 117.003 41.2639Z" fill="#0084CE"/>
<path d="M132.093 40.1252V57.3677H129.56V40.1252" fill="#0084CE"/>
<path d="M123.883 38.3799H137.831V40.8528H123.883" fill="#0084CE"/>
<path d="M139.903 38.3799H142.429V45.4555L144.962 42.9223V38.3799H147.495V57.3828H144.962V46.4884L142.429 49.0254V57.3677H139.903V38.3799Z" fill="#0084CE"/>
<path d="M157.817 38.38V57.3829H155.284V48.4978H152.75V57.3678H150.217V45.9646C150.226 44.3674 150.632 42.7975 151.397 41.3958C151.895 40.4672 152.64 39.6941 153.549 39.162C154.458 38.6298 155.497 38.3592 156.55 38.38H157.817ZM155.284 41.1281C154.557 41.4199 153.958 41.9612 153.595 42.6548C153.045 43.6771 152.755 44.8189 152.75 45.9797H155.284V41.1281Z" fill="#0084CE"/>
<path d="M160.524 38.3044H168.127V39.5711C168.127 41.5803 167.795 43.7177 166.857 45.414C166.479 46.1493 165.943 46.7912 165.286 47.2933C164.629 47.7954 163.869 48.1449 163.061 48.3167V57.3073H160.524V38.3044ZM163.061 45.6779C163.75 45.3778 164.311 44.8437 164.644 44.17C165.169 43.1286 165.474 41.9906 165.541 40.8263H163.061V45.6779Z" fill="#0084CE"/>
<path d="M170.841 38.3799H173.375V45.4555L175.912 42.9223V38.3799H178.445V57.3828H175.912V46.4884L173.375 49.0254V57.3677H170.841V38.3799Z" fill="#0084CE"/>
<path d="M184.954 39.6316C183.947 39.6296 182.982 39.2286 182.27 38.5165C181.558 37.8043 181.157 36.839 181.155 35.8318H183.688C183.688 36.1677 183.821 36.4899 184.059 36.7274C184.296 36.965 184.619 37.0984 184.954 37.0984C185.29 37.0984 185.613 36.965 185.85 36.7274C186.088 36.4899 186.221 36.1677 186.221 35.8318H188.758C188.756 36.8396 188.355 37.8055 187.642 38.5178C186.929 39.2301 185.962 39.6306 184.954 39.6316ZM181.155 40.8982H183.688V46.7073L186.221 44.1741V40.8982H188.758V57.3679H186.221V47.759L183.688 50.2922V57.3679H181.155V40.8982Z" fill="#0084CE"/>
<path d="M82.4278 1.60303H1.51953V57.2772H82.4278V1.60303Z" stroke="#0084CE" stroke-width="2" stroke-miterlimit="10"/>
<path d="M28.3481 13.1233C28.514 12.6445 27.7601 12.6181 27.0778 11.9094C26.7008 11.5023 25.7244 11.4043 25.1929 10.0246C25.0648 9.69664 24.3787 9.62125 24.062 9.33098C23.6021 8.91255 24.1789 8.3094 23.5682 7.5894C23.3609 7.34437 22.8143 7.90982 22.8143 7.90982C22.6846 8.10273 22.5299 8.27764 22.3544 8.43003C22.1169 8.56196 20.4922 8.7203 20.1944 8.77684C19.5122 8.92635 18.8573 9.18067 18.253 9.53077C18.253 9.53077 18.253 9.97559 18.072 10.1415C17.8911 10.3073 17.5179 10.3224 17.4199 10.6089C17.1862 11.3176 16.338 11.5249 16.1533 12.0112C15.9686 12.4975 14.9017 13.4776 14.7547 13.7566C14.6793 13.9036 14.849 14.2579 14.7246 14.371C13.9028 15.125 14.1101 15.2795 13.8651 15.7356C13.6578 16.1126 13.1903 16.7346 13.2582 16.9306C13.4844 17.5715 12.214 18.8795 12.2818 19.2565C12.4967 20.4062 11.2188 21.3637 11.2527 21.6238C11.2979 22.0008 10.9888 22.2986 11.0039 22.5663C11.019 22.8339 11.3545 22.9922 11.264 23.5162C11.1622 24.1194 10.9813 24.8054 10.9813 24.8054C10.9425 25.5442 10.9525 26.2846 11.0115 27.022C11.5882 29.9246 10.6646 32.2279 10.6609 32.6765C10.6609 34.1165 10.348 34.3012 10.3103 35.0401C10.2575 36.0579 10.005 36.2652 9.93333 36.891C9.83179 37.5152 9.83179 38.1516 9.93333 38.7758C10.0012 39.0661 10.1407 39.5599 10.3103 39.5712C10.4799 39.5825 10.5101 38.9379 11.0642 39.0661C11.7277 39.2206 11.8596 40.3704 12.1574 40.6418C12.2856 40.7624 12.4477 40.4382 12.5759 40.5099C12.9905 40.7285 12.9528 41.8104 13.0923 42.2062C13.1526 42.3683 13.507 42.161 13.5974 42.308C14.1026 43.1109 14.6341 44.0609 14.6416 45.0523C14.6416 45.5989 14.046 46.7524 14.0913 47.3631C14.1177 47.7401 14.4682 47.9964 14.5172 48.4639C14.5851 49.165 15.0827 49.459 15.1166 49.8134C15.1841 50.313 15.3632 50.791 15.6406 51.2119H24.16C24.2622 51.1432 24.3487 51.0535 24.4136 50.9489C24.4786 50.8443 24.5207 50.7271 24.537 50.605C24.537 50.2281 23.8095 49.7455 22.8557 49.5118C21.902 49.2781 20.6505 49.2706 20.6543 49.067C20.6543 48.0266 19.7721 46.9975 20.7334 45.9947C22.3242 44.3398 22.0415 43.6877 22.2413 43.5671C22.5429 43.3786 22.7313 43.846 22.8444 43.7216C23.0781 43.4691 23.1422 43.1109 23.5569 42.6548C24.1299 42.0253 24.145 41.3053 24.3485 40.9698C24.7896 40.2384 24.2317 37.7505 23.7944 36.8533C23.6361 36.6271 21.5326 34.7272 21.7399 34.5726C21.9472 34.4181 22.5165 35.1306 22.8708 35.4397C23.1686 35.696 23.7529 36.6573 23.7265 36.2577C23.7001 35.9146 23.7454 35.8317 24.1035 35.9033C24.1374 35.9033 24.1035 34.7724 24.2467 34.4897C24.3259 34.3238 24.733 34.5199 24.7971 34.3201C24.9969 33.6905 24.5898 33.2533 24.7104 32.1525C24.733 31.9565 24.929 32.1111 24.9667 31.8886C25.0723 31.2139 24.7858 31.0782 25.0044 29.9171C25.0044 29.8153 25.3814 29.9171 25.3362 29.5628C25.2909 29.2084 25.3362 28.364 25.1892 28.0851C25.0421 27.8061 24.5747 27.301 24.292 27.3311C23.8095 27.3801 23.2968 27.0559 23.3156 26.8298C23.3345 26.6036 23.6926 27.0861 24.3561 27.0786C24.733 27.0786 25.7282 28.0813 25.8639 28.2094C26.2396 28.6065 26.689 28.9266 27.1871 29.1519C27.5301 29.2725 27.4736 28.8541 27.7488 28.9709C28.416 29.2537 28.8797 29.6645 29.5243 29.7852C29.9465 29.8606 29.8447 29.4572 30.1086 29.51C30.3989 29.6438 30.6988 29.7559 31.0058 29.8455C31.4958 29.8455 31.2131 29.182 31.869 29.5891C32.3741 29.8983 32.3327 29.4798 33.3505 30.3808C33.6181 30.6145 34.8583 30.6446 35.028 30.3996C35.3748 29.9246 32.9697 27.8853 32.0763 26.6714C31.6767 26.1324 29.4376 25.5669 27.5754 24.2815C25.2269 22.6681 24.6765 21.3977 24.047 20.6513C23.8434 20.4138 24.0884 20.1235 23.8962 19.8446C23.5192 19.2753 23.2704 19.1811 23.4589 18.9926C23.6474 18.8041 23.5795 18.9926 24.2128 19.8408C24.3824 20.0632 24.1336 20.2668 24.2957 20.5382C25.0086 21.6345 25.8801 22.619 26.8817 23.4597C27.4589 23.53 28.0424 23.53 28.6195 23.4597C28.808 23.4031 28.5479 23.2335 28.7251 23.1543C29.1189 23.0464 29.5274 23.0019 29.9352 23.0224C30.233 23.0036 29.856 22.4042 30.15 22.3401C31.5787 22.0159 31.869 20.8134 32.9924 20.8134C33.3957 20.8134 34.0064 21.0999 34.5191 21.0584C34.9714 21.0282 35.7442 21.0848 35.8158 20.6475C35.9365 19.8936 34.7452 19.2791 34.0969 19.1811C33.5653 19.0982 32.868 18.5026 32.4759 18.3933C31.8125 18.2123 30.8399 18.3932 30.2707 18.4799C29.3396 18.6383 27.613 19.4488 26.8176 19.7466C26.4187 19.7919 26.0155 19.783 25.6189 19.7202C24.2204 19.3432 22.6635 17.8617 22.6635 17.8617C22.6158 17.538 22.6158 17.2091 22.6635 16.8854C22.7238 16.712 23.1083 16.8213 23.1988 16.6818C23.2892 16.5423 23.2402 16.1616 23.3684 15.8337C23.4966 15.5057 23.7114 15.6263 23.9037 15.1212C24.0055 14.8573 25.8979 15.3059 26.7573 14.895C27.1343 14.7103 27.3529 14.2881 27.6319 13.9677C27.9109 13.6472 28.1182 13.6699 28.3029 13.127L28.3481 13.1233Z" fill="#0084CE"/>
<path d="M42 1L42 58" stroke="#0084CE" stroke-width="3" stroke-miterlimit="10"/>
<path d="M48.9873 11.8452H74.4928" stroke="#0084CE" stroke-width="2" stroke-miterlimit="10"/>
<path d="M48.874 28.3904H74.3795" stroke="#0084CE" stroke-width="2" stroke-miterlimit="10"/>
<path d="M48.874 46.3416H74.3795" stroke="#0084CE" stroke-width="2" stroke-miterlimit="10"/>
</svg>
